<?xml version="1.0" encoding="UTF-8"?>
<!DOCTYPE svg PUBLIC "-//W3C//DTD SVG 1.1//EN" "http://www.w3.org/Graphics/SVG/1.1/DTD/svg11.dtd">
<!-- Creator: CorelDRAW -->
<svg xmlns="http://www.w3.org/2000/svg" xml:space="preserve" width="6.82666in" height="6.82666in" style="shape-rendering:geometricPrecision; text-rendering:geometricPrecision; image-rendering:optimizeQuality; fill-rule:evenodd; clip-rule:evenodd"
viewBox="0 0 6.82666 6.82666"
 xmlns:xlink="http://www.w3.org/1999/xlink">
 <defs>
  <style type="text/css">
   <![CDATA[
    .fil1 {fill:none}
    .fil0 {fill:#212121;fill-rule:nonzero}
   ]]>
  </style>
 </defs>
 <g id="Layer_x0020_1">
  <metadata id="CorelCorpID_0Corel-Layer"/>
  <g id="_554270224">
   <path id="_554270848" class="fil0" d="M4.03826 5.02656c-0.0900827,-0.185016 -0.215488,-0.350453 -0.367079,-0.488346 -0.15387,-0.139965 -0.3345,-0.251398 -0.532362,-0.326l0.0375 -0.0995827 -0.0376339 0.0998071c-0.0433701,-0.0163543 -0.0698386,-0.057937 -0.0690354,-0.101776l0 -0.251413c0,-0.0589094 0.0477598,-0.106669 0.106669,-0.106669l0.00122047 1.5748e-005c0.0979055,-0.00573228 0.235819,-0.0210157 0.374319,-0.0609606 0.136476,-0.0393543 0.274425,-0.102701 0.374063,-0.204634 0.00159449,-0.00164173 0.00259843,-0.00333858 0.00305118,-0.00494488 0.000582677,-0.00206299 0.000543307,-0.00435039 -5.11811e-005,-0.00657874 -0.000614173,-0.00230315 -0.00162598,-0.00424016 -0.00294094,-0.00551969 -0.000940945,-0.000917323 -0.00231102,-0.00172835 -0.00410236,-0.00235433l-0.00133465 -0.000358268 -4.33071e-005 0.00015748c-0.00149213,-0.00042126 -0.00296457,-0.000877953 -0.0044252,-0.0013622 -0.306197,-0.0829843 -0.308874,-0.47098 -0.311878,-0.917929 -0.00264173,-0.392689 -0.00565354,-0.838268 -0.223776,-1.08148l-0.000322835 0.000291339c-0.00196063,-0.00218504 -0.00381102,-0.00442913 -0.00555512,-0.00672441 -0.0501063,-0.0536654 -0.1075,-0.0944724 -0.171764,-0.122157 -0.067,-0.0288661 -0.142323,-0.043437 -0.225484,-0.043437l-0.0227756 0c-0.0278583,0 -0.0532165,-0.010689 -0.0722165,-0.0281732 -0.0117677,-0.0101969 -0.0213346,-0.0180591 -0.028752,-0.0236378 -0.154228,-0.115996 -0.357205,-0.143386 -0.553594,-0.10652 -0.200783,0.037689 -0.392587,0.141843 -0.519323,0.287366 -0.0132205,0.0151772 -0.023811,0.0280354 -0.0316417,0.0384488l-0.085 -0.063752 0.085252 0.0641102c-0.00105118,0.00139764 -0.00213386,0.00275984 -0.00324016,0.00409449 -0.221874,0.297591 -0.224591,0.658642 -0.227098,0.996894 -0.00225197,0.303551 -0.00438976,0.590535 -0.148559,0.830094 -0.0349803,0.0579488 -0.071122,0.0941811 -0.100937,0.116693 -0.0362244,0.0273583 -0.0673071,0.0373504 -0.0802717,0.040815l3.54331e-005 0.000133858c-0.012122,0.00324016 -0.024315,0.00425197 -0.0361417,0.00329134 -0.000275591,0.000929134 -0.000464567,0.00200787 -0.000559055,0.0032126 -0.000385827,0.00491732 0.00115354,0.0106299 0.00503543,0.0163189l-0.0879173 0.06 0.0881102 -0.0601181c0.0013622,0.00199606 0.0026378,0.00402362 0.00384646,0.0060748 0.0527756,0.0759449 0.150465,0.134587 0.262638,0.178299 0.167291,0.065189 0.361618,0.095063 0.499965,0.10087l-0.00416535 0.106252 0.00447244 -0.106575c0.0573622,0.00240551 0.102228,0.0496929 0.102189,0.106575l7.87402e-006 0 0 0.241094c0,0.0481929 -0.0319646,0.0889173 -0.0758465,0.102142 -0.192311,0.0740354 -0.368657,0.18478 -0.519941,0.32415 -0.152654,0.140626 -0.279524,0.310264 -0.371264,0.500587l0.000173228 8.26772e-005 -0.000192913 0.000429134 4.33071e-005 1.9685e-005 -0.000271654 0.000543307c-0.000488189,0.00131102 -0.000716535,0.00266142 -0.000716535,0.00397638 0,0.00290157 0.000629921,0.00540157 0.00175984,0.00722835 0.000889764,0.00143701 0.00233465,0.00271654 0.00422835,0.00361811 0.00113386,0.00053937 0.0027874,0.000854331 0.00496457,0.000854331l2.96153 0c0.00208661,0 0.00370079,-0.000311024 0.00483465,-0.000850394 0.00181102,-0.000862205 0.00331496,-0.00225197 0.0043622,-0.00392913 0.00125984,-0.00202362 0.00197244,-0.00448031 0.00197244,-0.00708661l0.000417323 0c0,-0.00125984 -0.000559055,-0.00316142 -0.00175984,-0.00568504l-5.51181e-005 2.3622e-005c-0.000944882,-0.00198819 -0.0018189,-0.00399213 -0.00262992,-0.00600394zm-0.223748 -0.64585c0.171264,0.155791 0.313091,0.343063 0.415165,0.552831 0.00135039,0.00235827 0.00262205,0.00478346 0.00381102,0.00727559l-0.0962992 0.045874 0.096252 -0.0458346c0.0148937,0.0312638 0.0217717,0.0644449 0.0217677,0.0973701l0.000417323 0c0,0.0427835 -0.0123976,0.0842126 -0.0344764,0.119591 -0.0222913,0.0357283 -0.0543898,0.0652874 -0.0935276,0.0839291 -0.0290118,0.013815 -0.0615787,0.021685 -0.0965039,0.021685l-2.96153 0c-0.0351142,0 -0.067685,-0.00788189 -0.0966339,-0.021689 -0.0391654,-0.018685 -0.0711457,-0.0484882 -0.0933937,-0.0844528 -0.0220079,-0.0355787 -0.0342638,-0.0768425 -0.0342638,-0.118898 0,-0.0307913 0.00635039,-0.0621772 0.0199685,-0.0923189 0.000677165,-0.00159843 0.0013937,-0.00318504 0.00215354,-0.00476772l0.0961024 0.0462835 -0.0958346 -0.046252c0.103543,-0.214992 0.246736,-0.406551 0.419012,-0.565252 0.154453,-0.142291 0.332535,-0.258307 0.526614,-0.341287l0 -0.0706811c-0.142508,-0.0145551 -0.313583,-0.0482283 -0.465799,-0.107539 -0.148976,-0.0580512 -0.282315,-0.141413 -0.362047,-0.257012 -0.00137402,-0.00176772 -0.00270866,-0.00358268 -0.00398819,-0.00545669l0.000185039 -0.000125984c-0.0330197,-0.0484055 -0.0456614,-0.102421 -0.0416969,-0.15298 0.00252756,-0.032248 0.0118819,-0.0632756 0.0271063,-0.0908071 0.0159409,-0.0288268 0.0382244,-0.0538504 0.0658425,-0.072685 0.0303701,-0.0207205 0.0663504,-0.0337638 0.106461,-0.0360118l0.00170079 -0.00127953c0.0122598,-0.00925591 0.0282874,-0.0260827 0.0467638,-0.0566929 0.114618,-0.190457 0.116539,-0.448248 0.118559,-0.720929 0.00275984,-0.372539 0.00575591,-0.770165 0.268441,-1.12282 0.00123622,-0.00187795 0.00252756,-0.00373228 0.00389764,-0.00555118l0.000133858 0.000102362 0.00011811 -0.00015748 0.00019685 0.000149606c0.0150276,-0.0199764 0.0285669,-0.0368543 0.0406102,-0.0506811 0.157657,-0.181028 0.394366,-0.310236 0.640992,-0.356531 0.25102,-0.047122 0.514398,-0.00914567 0.720264,0.145685 0.00391339,0.00294488 0.0076811,0.00581102 0.0112953,0.00859843 0.106413,0.00175197 0.204807,0.0221339 0.294594,0.060815 0.091185,0.0392874 0.172736,0.0975118 0.244035,0.174307 0.00274016,0.00247638 0.00537795,0.00511811 0.00789764,0.00792913l-0.0793898 0.0712402 0.0791654 -0.0708346c0.27185,0.302957 0.27515,0.791709 0.278047,1.22243 0.00242126,0.359323 0.00455118,0.671189 0.155539,0.713268 0.00212992,0.000464567 0.00425197,0.000988189 0.00637795,0.00159055l-5.90551e-005 0.000204724c0.0378543,0.0107638 0.0700551,0.0301496 0.095752,0.0551142 0.0296614,0.0288228 0.0502047,0.0646969 0.0604449,0.103024 0.0102598,0.0384094 0.0103858,0.0796299 -0.000783465,0.119083 -0.00977559,0.0345157 -0.0280472,0.0674646 -0.0555472,0.0957717 -0.129169,0.132146 -0.300713,0.212157 -0.468236,0.260469 -0.117098,0.0337717 -0.231669,0.052 -0.327201,0.0617756l0 0.0831417c0.196433,0.083122 0.376181,0.198689 0.531524,0.339992z"/>
   <path id="_554271136" class="fil0" d="M5.19459 4.64488c0.153047,0 0.291614,0.0620472 0.391913,0.16235 0.100303,0.100299 0.16235,0.23887 0.16235,0.391913 0,0.153047 -0.0620472,0.291614 -0.16235,0.391913 -0.100299,0.100303 -0.238866,0.16235 -0.391913,0.16235 -0.153043,0 -0.291614,-0.0620472 -0.391913,-0.16235 -0.100303,-0.100299 -0.16235,-0.238866 -0.16235,-0.391913 0,-0.153043 0.0620472,-0.291614 0.16235,-0.391913 0.100299,-0.100303 0.23887,-0.16235 0.391913,-0.16235zm0.241079 0.313185c-0.061685,-0.061689 -0.146921,-0.0998465 -0.241079,-0.0998465 -0.0941535,0 -0.179394,0.0381575 -0.241079,0.0998465 -0.061689,0.061685 -0.0998465,0.146925 -0.0998465,0.241079 0,0.0941575 0.0381575,0.179394 0.0998465,0.241079 0.061685,0.061689 0.146925,0.0998465 0.241079,0.0998465 0.0941575,0 0.179394,-0.0381575 0.241079,-0.0998465 0.061689,-0.061685 0.0998465,-0.146921 0.0998465,-0.241079 0,-0.0941535 -0.0381575,-0.179394 -0.0998465,-0.241079z"/>
   <polygon id="_554271304" class="fil0" points="5.30127,4.41585 5.30127,4.75155 5.08793,4.75155 5.08793,4.41585 "/>
   <polygon id="_554270680" class="fil0" points="5.30127,5.63763 5.30127,5.97333 5.08793,5.97333 5.08793,5.63763 "/>
   <polygon id="_554271112" class="fil0" points="5.82067,4.71936 5.58329,4.95673 5.43246,4.8059 5.66983,4.56852 "/>
   <polygon id="_554270320" class="fil0" points="4.95674,5.58328 4.71937,5.82066 4.56853,5.66982 4.80591,5.43245 "/>
   <polygon id="_554270128" class="fil0" points="5.97333,5.30126 5.63764,5.30126 5.63764,5.08792 5.97333,5.08792 "/>
   <polygon id="_554270608" class="fil0" points="4.75156,5.30126 4.41586,5.30126 4.41586,5.08792 4.75156,5.08792 "/>
   <polygon id="_554270152" class="fil0" points="5.66983,5.82066 5.43246,5.58328 5.58329,5.43245 5.82067,5.66982 "/>
   <polygon id="_554270272" class="fil0" points="4.80591,4.95673 4.56853,4.71936 4.71937,4.56852 4.95674,4.8059 "/>
  </g>
 </g>
 <rect class="fil1" width="6.82666" height="6.82666"/>
</svg>
